<svg xmlns="http://www.w3.org/2000/svg" width="512" height="512" viewBox="0 0 512 512">
  <path id="bg-pebble" stroke="#fafafa" stroke-width="20" fill="#181818" d="M278.35 32.54C144.27 32.54 32.54 144.27 32.54 256c0 125.15 125.15 223.47 246.15 223.47c134.08 0 201.12-67.08 201.12-187.73c0-125.15-62.56-259.2-201.12-259.2z"></path>
  <path id="A" fill="#fafafa" d="M154.9,218.6q0.978,6.138,1.227,22.335l0.245,20.126-13.253-.491q-13.749-.489-13.745-0.982,0-1.226,3.927-16.444,4.659-16.442,5.89-23.071a49.408,49.408,0,0,1,3.559-10.309q2.331-4.907,4.05-4.909,0.978,0,3.682,3.191A22.752,22.752,0,0,1,154.9,218.6Zm-35.835-1.473q-2.208,10.309-6.013,24.3t-4.786,15.217c-0.491.821-1.8,1.227-3.927,1.227q-3.439,0-6.381,3.314a10.41,10.41,0,0,0-2.945,6.995q0,2.945,2.7,6.5t4.909,3.559q0.737,0,.736,1.472,0,4.178-4.172,13.254a32.494,32.494,0,0,1-6.013,8.959q-3.808,4.05-5.768,4.049c-0.821,0-1.227-.571-1.227-1.718q0-1.224,3.682-3.19,5.891-2.451,5.891-8.591a11.122,11.122,0,0,0-3.682-8.222,12.886,12.886,0,0,0-9.327-3.559q-7.122,0-11.536,6.382t-4.909,17.18a40.48,40.48,0,0,0-.246,4.909,13.9,13.9,0,0,0,2.209,8.1q5.643,9.083,17.181,9.081,9.814,0,19.144-7.118,5.644-4.17,11.168-14.481a78.42,78.42,0,0,0,7.731-20.617l0.491-3.436h34.362l0.245,9.818q0,1.23.123,4.3c0.08,2.048.123,3.559,0.123,4.541s-0.043,2.331-.123,4.049-0.123,2.907-.123,3.559a14.394,14.394,0,0,1-.122,1.718,12.364,12.364,0,0,0-.123,1.473q0,3.928,3.681,7.363a11.77,11.77,0,0,0,8.591,3.682,10.541,10.541,0,0,0,6.381-1.964,9.672,9.672,0,0,0,4.418-8.59,31.46,31.46,0,0,0-.982-7.609q-1.967-7.116-2.7-31.662-1.232-42.459-2.578-53.015a49.681,49.681,0,0,0-6.013-18.653q-4.665-7.6-9.327-10.922t-12.026-3.8h-3.191a16.286,16.286,0,0,0-8.59,1.963q-11.781,7.364-16.936,30.189h0Z"/>
  <path id="B" fill="#fafafa" d="M312.723,278a4.272,4.272,0,0,1,.246,1.718q0,7.122-11.291,13.377t-26.753,7.731q-7.362.736-10.554,0.737a0.432,0.432,0,0,1-.49-0.491,56.757,56.757,0,0,1,1.227-7.609,84.834,84.834,0,0,0,.982-13.745q0-14.726-1.719-19.389a1.576,1.576,0,0,1,.369-1.964,10.078,10.078,0,0,1,3.559-1.473,39.042,39.042,0,0,1,9.572-1.472q6.869,0,17.671,5.4,14.727,7.61,17.181,17.18h0Zm-19.88-61.36q0,0.984-6.627,7.609a45.6,45.6,0,0,1-24.053,12.763l-4.418.982-1.718-8.836q-2.209-10.309-2.7-11.536a8.819,8.819,0,0,1-.614-2.332c-0.084-.736-0.042-1.1.123-1.1q0.736-.736,8.1-1.718t13.009-1.227a36.117,36.117,0,0,1,12.763,1.963Q292.839,215.657,292.843,216.636Zm-73.387-19.389a16.77,16.77,0,0,0,.245,3.19,21.341,21.341,0,0,1,.246,3.436q0,2.21-4.418,5.155A63.1,63.1,0,0,0,199.7,224.49q-6.753,9.332-6.75,15.954a4.893,4.893,0,0,0,.123.859,5.323,5.323,0,0,1,.123.859,14.431,14.431,0,0,0,4.172,7.241q3.188,3.071,6.382,3.068a3.275,3.275,0,0,0,.736-0.123,3.4,3.4,0,0,1,.736-0.123q6.869-1.715,8.345-9.327a18.627,18.627,0,0,1,4.173-9.081,53.194,53.194,0,0,1,8.1-7.363q5.156-3.924,6.873-3.927,1.225,0,4.172,12.763,3.924,15.957,5.4,20.126,3.433,9.819,3.436,26.262,0,8.1-1.473,11.536-2.208,3.929-2.945,3.927-0.248,0-9.572-7.364-18.9-15.7-27.98-18.408a39.656,39.656,0,0,0-12.027-1.718q-12.029,0-18.162,6.136-3.441,3.441-3.436,7.118a10.165,10.165,0,0,0,2.454,6.136q2.7,2.946,5.154,2.945c0.161,0,.572-0.038,1.227-0.122a14.224,14.224,0,0,1,1.719-.123q11.781-1.962,12.762-1.964a16.367,16.367,0,0,1,8.345,2.455q4.172,2.455,13.254,10.063,13.99,11.292,20.862,14.972a28.8,28.8,0,0,0,8.345,2.7q3.682,0.494,16.936.981h5.154q20.618,0,33.993-4.663a56.774,56.774,0,0,0,23.194-15.217q9.325-10.062,9.327-19.636a27.373,27.373,0,0,0-.245-4.172q-2.457-19.386-23.562-32.153-8.595-4.659-8.591-5.645t4.418-5.89A44.4,44.4,0,0,0,311.25,224a25.14,25.14,0,0,0,2.946-8.836q0-6.379-5.523-12.027t-15.34-9.081q-5.891-2.21-20.617-2.209-14.484,0-23.807,2.209a42.451,42.451,0,0,1-7.609,1.473,4.041,4.041,0,0,1-2.945-1.719q-4.176-5.154-9.327-5.154a9.417,9.417,0,0,0-6.872,2.945,7.975,7.975,0,0,0-2.7,5.646h0Z"/>
  <path id="C" fill="#fafafa" d="M353.072,206.382Q336.136,222.83,332.7,240.744a115.76,115.76,0,0,0-2.209,21.108,65.514,65.514,0,0,0,1.473,14.235q5.4,24.546,22.089,37.43t42.461,13.131q24.787,0,46.143-19.881,9.815-9.076,9.818-15.217a15.727,15.727,0,0,0-.982-4.172q-2.7-6.133-10.063-6.136a7.424,7.424,0,0,0-4.786,1.472q-1.841,1.473-8.468,9.327-12.029,14.238-33.134,14.235a48.688,48.688,0,0,1-24.053-6.136,34.749,34.749,0,0,1-15.708-17.18,50.145,50.145,0,0,1-4.664-21.354,61.542,61.542,0,0,1,.737-9.081q4.17-29.453,29.943-42.216a35.6,35.6,0,0,1,8.836-3.558,78.923,78.923,0,0,1,10.8-.859q9.078,0,12.15,1.349t3.068,5.523a9.992,9.992,0,0,0,5.89,8.59,10.112,10.112,0,0,0,4.664,1.473q2.45,0,5.89-3.436a13.326,13.326,0,0,0,3.927-9.818,21.107,21.107,0,0,0-4.3-12.4,25.865,25.865,0,0,0-11.413-8.958q-6.138-2.7-21.108-2.7a76.842,76.842,0,0,0-11.535.982Q370,189.941,353.072,206.382Z"/>
</svg>
