<svg xmlns="http://www.w3.org/2000/svg" width="156" height="76" viewBox="0 0 575 280">
  <defs>
    <linearGradient id="bgGradient" x1="0%" y1="0%" x2="100%" y2="0%">
      <stop offset="20%" stop-color="#003300"/>
      <stop offset="100%" stop-color="#663399"/>
    </linearGradient>
    <linearGradient id="textGradient" x1="0%" y1="0%" x2="100%" y2="0%">
      <stop offset="30%" stop-color="#ffd324"/>
      <stop offset="100%" stop-color="#ff6699"/>
    </linearGradient>
    <mask id="cornerMask">
      <rect width="575" height="280" rx="40" ry="40" fill="#fff"/>
    </mask>
  </defs>
  <rect width="575" height="280" fill="url(#bgGradient)" mask="url(#cornerMask)"/>
  <path fill="url(#textGradient)" d="M99.382,170.189L81.15,110.677H65.756L47.438,170.189H60.6l3.354-13.33H82.612l3.354,13.33H99.382ZM73.238,120.051L80.2,147.485H66.358Zm62.092,18.662a15.752,15.752,0,0,0,7.783-4.343,11.631,11.631,0,0,0,3.139-8.471q0-8-6.45-11.61t-18.662-3.612H104.886v59.512h18.576q11.954,0,18.662-3.956t6.708-13.33q0-6.622-3.741-9.847a20.305,20.305,0,0,0-9.761-4.343h0Zm-12.986-18.92q5.676,0,8.342,1.634t2.666,5.59a6.993,6.993,0,0,1-2.494,5.891q-2.495,1.935-7.138,1.935h-6.192v-15.05h4.816Zm1.2,41.022h-6.02V143.443h7.138q11.007,0,11.008,8.944,0,4.9-3.1,6.665t-9.03,1.763h0Zm57.7-51.514a25.659,25.659,0,0,0-13.588,3.655,24.95,24.95,0,0,0-9.46,10.664,37.617,37.617,0,0,0-3.44,16.727q0,9.976,3.354,16.985a24.141,24.141,0,0,0,9.374,10.621,26.718,26.718,0,0,0,14.018,3.612,25,25,0,0,0,10.363-2.107,25.314,25.314,0,0,0,7.869-5.375l-5.848-7.31a29.5,29.5,0,0,1-5.762,3.569,14.631,14.631,0,0,1-6.106,1.247,11.893,11.893,0,0,1-10.191-5.2q-3.741-5.2-3.741-16.039,0-11.094,3.741-16.3a11.813,11.813,0,0,1,10.1-5.2,16.912,16.912,0,0,1,10.836,4.214l6.278-7.31a29.294,29.294,0,0,0-8.084-4.859,26.964,26.964,0,0,0-9.718-1.591h0Zm46.611,1.376v59.512h35.69V160.9H240.506V144.475h18.748v-9.116H240.506v-15.48h21.5l1.376-9.2H227.864Zm69.747,12.556a16.135,16.135,0,0,0-7.7,1.806,20.3,20.3,0,0,0-6.235,5.332l-0.946-5.762H272.155v45.58h12.212V138.713a17.405,17.405,0,0,1,4.085-4.773,7.589,7.589,0,0,1,4.687-1.591,4.581,4.581,0,0,1,3.741,1.505q1.245,1.5,1.247,5.2v31.132h12.212v-33.2q0-6.45-3.354-10.1t-9.374-3.655h0Zm43.343,0a21.176,21.176,0,0,0-11.481,3.1,20.321,20.321,0,0,0-7.611,8.643,29.135,29.135,0,0,0-2.666,12.771,28.023,28.023,0,0,0,2.666,12.6,19.414,19.414,0,0,0,7.611,8.3,22.486,22.486,0,0,0,11.653,2.924,23.009,23.009,0,0,0,14.964-5.332l-5.332-7.654a24.721,24.721,0,0,1-4.644,2.451,12.581,12.581,0,0,1-4.386.731,8.442,8.442,0,0,1-7.138-3.268q-2.494-3.269-2.494-10.836,0-14.964,9.718-14.964a13.251,13.251,0,0,1,4.6.774,16.631,16.631,0,0,1,4.343,2.494l5.332-7.224a22.126,22.126,0,0,0-6.923-4.171,23.842,23.842,0,0,0-8.213-1.333h0Zm39.561,0a22.135,22.135,0,0,0-11.739,3.01,19.581,19.581,0,0,0-7.568,8.471,28.964,28.964,0,0,0-2.623,12.685q0,11.352,5.805,17.759t16.039,6.407a21.982,21.982,0,0,0,11.653-3.01,19.605,19.605,0,0,0,7.568-8.471,28.992,28.992,0,0,0,2.623-12.685q0-11.352-5.762-17.759t-16-6.407h0Zm0,9.116A7.429,7.429,0,0,1,387.309,136q2.235,3.656,2.236,11.4t-2.279,11.4a8.222,8.222,0,0,1-13.674,0q-2.28-3.656-2.279-11.4t2.279-11.4a7.6,7.6,0,0,1,6.923-3.655h0Zm58.308-27.262v22.7a15.474,15.474,0,0,0-11.094-4.558,15.976,15.976,0,0,0-9.718,3.1,19.751,19.751,0,0,0-6.493,8.557,32.247,32.247,0,0,0-2.279,12.513q0,11.18,4.429,17.673t12.857,6.493A15.1,15.1,0,0,0,439.6,164.6l0.688,5.59h10.75V106.463Zm-8.686,57.362a6.71,6.71,0,0,1-6.063-3.44q-2.109-3.439-2.107-11.61,0-7.74,2.365-11.438a7.411,7.411,0,0,1,6.579-3.7,8.317,8.317,0,0,1,4.257,1.075,14.3,14.3,0,0,1,3.655,3.225v20.382a14.3,14.3,0,0,1-3.956,4.171,8.526,8.526,0,0,1-4.73,1.333h0ZM501.6,146.367q0-10.921-5.418-17.028t-15.136-6.106a19.349,19.349,0,0,0-11.137,3.182,20.08,20.08,0,0,0-7.138,8.729,30.651,30.651,0,0,0-2.451,12.513q0,11.008,5.762,17.458t16.512,6.45a26.765,26.765,0,0,0,17.286-6.192l-5.074-6.88a25.833,25.833,0,0,1-5.59,3.01,15.86,15.86,0,0,1-5.5.946,10.5,10.5,0,0,1-7.482-2.58q-2.754-2.58-3.354-8.772h28.466q0.258-3.87.258-4.73h0Zm-12.126-2.924h-16.6q0.429-6.278,2.537-9.073a6.953,6.953,0,0,1,5.891-2.8q8.169,0,8.17,11.352v0.516Zm44.547-20.124a10.671,10.671,0,0,0-7.1,2.666,16.483,16.483,0,0,0-4.773,7.482l-1.118-8.858H510.46v45.58h12.212V146.625q1.29-5.762,3.526-8.6a7.536,7.536,0,0,1,6.278-2.838,17.235,17.235,0,0,1,4.042.6l2.064-11.782a17.253,17.253,0,0,0-4.558-.688h0Z"/>
</svg>
